<svg width="393" height="283" viewBox="0 0 393 283" fill="none" xmlns="http://www.w3.org/2000/svg">
<path d="M395 0H0V271.744C17.7228 279.754 40.3151 284.634 68.7802 282.498C153.737 275.979 318.842 160.022 395 129.546V0Z" fill="#197ADC"/>
<path opacity="0.2" d="M394.979 0H173.173C174.274 44.2412 191.12 86.6529 220.705 119.664C250.289 152.674 290.686 174.135 334.684 180.215C357.82 165.911 378.573 153.875 394.979 146.4V0Z" fill="white"/>
<path d="M35.3 92.21C33.84 92.21 32.52 91.96 31.34 91.46C30.18 90.96 29.26 90.24 28.58 89.3C27.9 88.36 27.55 87.25 27.53 85.97H32.03C32.09 86.83 32.39 87.51 32.93 88.01C33.49 88.51 34.25 88.76 35.21 88.76C36.19 88.76 36.96 88.53 37.52 88.07C38.08 87.59 38.36 86.97 38.36 86.21C38.36 85.59 38.17 85.08 37.79 84.68C37.41 84.28 36.93 83.97 36.35 83.75C35.79 83.51 35.01 83.25 34.01 82.97C32.65 82.57 31.54 82.18 30.68 81.8C29.84 81.4 29.11 80.81 28.49 80.03C27.89 79.23 27.59 78.17 27.59 76.85C27.59 75.61 27.9 74.53 28.52 73.61C29.14 72.69 30.01 71.99 31.13 71.51C32.25 71.01 33.53 70.76 34.97 70.76C37.13 70.76 38.88 71.29 40.22 72.35C41.58 73.39 42.33 74.85 42.47 76.73H37.85C37.81 76.01 37.5 75.42 36.92 74.96C36.36 74.48 35.61 74.24 34.67 74.24C33.85 74.24 33.19 74.45 32.69 74.87C32.21 75.29 31.97 75.9 31.97 76.7C31.97 77.26 32.15 77.73 32.51 78.11C32.89 78.47 33.35 78.77 33.89 79.01C34.45 79.23 35.23 79.49 36.23 79.79C37.59 80.19 38.7 80.59 39.56 80.99C40.42 81.39 41.16 81.99 41.78 82.79C42.4 83.59 42.71 84.64 42.71 85.94C42.71 87.06 42.42 88.1 41.84 89.06C41.26 90.02 40.41 90.79 39.29 91.37C38.17 91.93 36.84 92.21 35.3 92.21ZM54.2712 83.63C54.2712 81.95 54.6012 80.46 55.2612 79.16C55.9413 77.86 56.8513 76.86 57.9913 76.16C59.1513 75.46 60.4413 75.11 61.8613 75.11C63.1013 75.11 64.1813 75.36 65.1013 75.86C66.0413 76.36 66.7913 76.99 67.3513 77.75V75.38H71.5813V92H67.3513V89.57C66.8113 90.35 66.0613 91 65.1013 91.52C64.1613 92.02 63.0713 92.27 61.8313 92.27C60.4313 92.27 59.1513 91.91 57.9913 91.19C56.8513 90.47 55.9413 89.46 55.2612 88.16C54.6012 86.84 54.2712 85.33 54.2712 83.63ZM67.3513 83.69C67.3513 82.67 67.1513 81.8 66.7513 81.08C66.3513 80.34 65.8113 79.78 65.1313 79.4C64.4513 79 63.7213 78.8 62.9413 78.8C62.1613 78.8 61.4413 78.99 60.7812 79.37C60.1213 79.75 59.5813 80.31 59.1613 81.05C58.7613 81.77 58.5613 82.63 58.5613 83.63C58.5613 84.63 58.7613 85.51 59.1613 86.27C59.5813 87.01 60.1213 87.58 60.7812 87.98C61.4613 88.38 62.1813 88.58 62.9413 88.58C63.7213 88.58 64.4513 88.39 65.1313 88.01C65.8113 87.61 66.3513 87.05 66.7513 86.33C67.1513 85.59 67.3513 84.71 67.3513 83.69ZM88.8833 69.8V92H84.6833V69.8H88.8833ZM117.483 83.33C117.483 83.93 117.443 84.47 117.363 84.95H105.213C105.313 86.15 105.733 87.09 106.473 87.77C107.213 88.45 108.123 88.79 109.203 88.79C110.763 88.79 111.873 88.12 112.533 86.78H117.063C116.583 88.38 115.663 89.7 114.303 90.74C112.943 91.76 111.273 92.27 109.293 92.27C107.693 92.27 106.253 91.92 104.973 91.22C103.713 90.5 102.723 89.49 102.003 88.19C101.303 86.89 100.953 85.39 100.953 83.69C100.953 81.97 101.303 80.46 102.003 79.16C102.703 77.86 103.683 76.86 104.943 76.16C106.203 75.46 107.653 75.11 109.293 75.11C110.873 75.11 112.283 75.45 113.523 76.13C114.783 76.81 115.753 77.78 116.433 79.04C117.133 80.28 117.483 81.71 117.483 83.33ZM113.133 82.13C113.113 81.05 112.723 80.19 111.963 79.55C111.203 78.89 110.273 78.56 109.173 78.56C108.133 78.56 107.253 78.88 106.533 79.52C105.833 80.14 105.403 81.01 105.243 82.13H113.133ZM135.909 92.27C134.549 92.27 133.329 92.03 132.249 91.55C131.169 91.05 130.309 90.38 129.669 89.54C129.049 88.7 128.709 87.77 128.649 86.75H132.879C132.959 87.39 133.269 87.92 133.809 88.34C134.369 88.76 135.059 88.97 135.879 88.97C136.679 88.97 137.299 88.81 137.739 88.49C138.199 88.17 138.429 87.76 138.429 87.26C138.429 86.72 138.149 86.32 137.589 86.06C137.049 85.78 136.179 85.48 134.979 85.16C133.739 84.86 132.719 84.55 131.919 84.23C131.139 83.91 130.459 83.42 129.879 82.76C129.319 82.1 129.039 81.21 129.039 80.09C129.039 79.17 129.299 78.33 129.819 77.57C130.359 76.81 131.119 76.21 132.099 75.77C133.099 75.33 134.269 75.11 135.609 75.11C137.589 75.11 139.169 75.61 140.349 76.61C141.529 77.59 142.179 78.92 142.299 80.6H138.279C138.219 79.94 137.939 79.42 137.439 79.04C136.959 78.64 136.309 78.44 135.489 78.44C134.729 78.44 134.139 78.58 133.719 78.86C133.319 79.14 133.119 79.53 133.119 80.03C133.119 80.59 133.399 81.02 133.959 81.32C134.519 81.6 135.389 81.89 136.569 82.19C137.769 82.49 138.759 82.8 139.539 83.12C140.319 83.44 140.989 83.94 141.549 84.62C142.129 85.28 142.429 86.16 142.449 87.26C142.449 88.22 142.179 89.08 141.639 89.84C141.119 90.6 140.359 91.2 139.359 91.64C138.379 92.06 137.229 92.27 135.909 92.27Z" fill="#11236E" fill-opacity="0.9"/>
<path d="M35.3 137.21C33.84 137.21 32.52 136.96 31.34 136.46C30.18 135.96 29.26 135.24 28.58 134.3C27.9 133.36 27.55 132.25 27.53 130.97H32.03C32.09 131.83 32.39 132.51 32.93 133.01C33.49 133.51 34.25 133.76 35.21 133.76C36.19 133.76 36.96 133.53 37.52 133.07C38.08 132.59 38.36 131.97 38.36 131.21C38.36 130.59 38.17 130.08 37.79 129.68C37.41 129.28 36.93 128.97 36.35 128.75C35.79 128.51 35.01 128.25 34.01 127.97C32.65 127.57 31.54 127.18 30.68 126.8C29.84 126.4 29.11 125.81 28.49 125.03C27.89 124.23 27.59 123.17 27.59 121.85C27.59 120.61 27.9 119.53 28.52 118.61C29.14 117.69 30.01 116.99 31.13 116.51C32.25 116.01 33.53 115.76 34.97 115.76C37.13 115.76 38.88 116.29 40.22 117.35C41.58 118.39 42.33 119.85 42.47 121.73H37.85C37.81 121.01 37.5 120.42 36.92 119.96C36.36 119.48 35.61 119.24 34.67 119.24C33.85 119.24 33.19 119.45 32.69 119.87C32.21 120.29 31.97 120.9 31.97 121.7C31.97 122.26 32.15 122.73 32.51 123.11C32.89 123.47 33.35 123.77 33.89 124.01C34.45 124.23 35.23 124.49 36.23 124.79C37.59 125.19 38.7 125.59 39.56 125.99C40.42 126.39 41.16 126.99 41.78 127.79C42.4 128.59 42.71 129.64 42.71 130.94C42.71 132.06 42.42 133.1 41.84 134.06C41.26 135.02 40.41 135.79 39.29 136.37C38.17 136.93 36.84 137.21 35.3 137.21ZM59.5513 122.78C60.0913 122.02 60.8313 121.39 61.7713 120.89C62.7313 120.37 63.8213 120.11 65.0413 120.11C66.4613 120.11 67.7413 120.46 68.8813 121.16C70.0413 121.86 70.9513 122.86 71.6113 124.16C72.2913 125.44 72.6313 126.93 72.6313 128.63C72.6313 130.33 72.2913 131.84 71.6113 133.16C70.9513 134.46 70.0413 135.47 68.8813 136.19C67.7413 136.91 66.4613 137.27 65.0413 137.27C63.8213 137.27 62.7413 137.02 61.8013 136.52C60.8813 136.02 60.1313 135.39 59.5513 134.63V144.92H55.3513V120.38H59.5513V122.78ZM68.3413 128.63C68.3413 127.63 68.1313 126.77 67.7113 126.05C67.3113 125.31 66.7713 124.75 66.0913 124.37C65.4313 123.99 64.7113 123.8 63.9313 123.8C63.1713 123.8 62.4513 124 61.7713 124.4C61.1113 124.78 60.5713 125.34 60.1513 126.08C59.7513 126.82 59.5513 127.69 59.5513 128.69C59.5513 129.69 59.7513 130.56 60.1513 131.3C60.5713 132.04 61.1113 132.61 61.7713 133.01C62.4513 133.39 63.1713 133.58 63.9313 133.58C64.7113 133.58 65.4313 133.38 66.0913 132.98C66.7713 132.58 67.3113 132.01 67.7113 131.27C68.1313 130.53 68.3413 129.65 68.3413 128.63ZM94.0433 120.14C95.3033 120.14 96.4233 120.42 97.4033 120.98C98.3833 121.52 99.1433 122.33 99.6833 123.41C100.243 124.47 100.523 125.75 100.523 127.25V137H96.3233V127.82C96.3233 126.5 95.9933 125.49 95.3333 124.79C94.6733 124.07 93.7733 123.71 92.6333 123.71C91.4733 123.71 90.5533 124.07 89.8733 124.79C89.2133 125.49 88.8833 126.5 88.8833 127.82V137H84.6833V114.8H88.8833V122.45C89.4233 121.73 90.1433 121.17 91.0433 120.77C91.9433 120.35 92.9433 120.14 94.0433 120.14ZM128.967 128.33C128.967 128.93 128.927 129.47 128.847 129.95H116.697C116.797 131.15 117.217 132.09 117.957 132.77C118.697 133.45 119.607 133.79 120.687 133.79C122.247 133.79 123.357 133.12 124.017 131.78H128.547C128.067 133.38 127.147 134.7 125.787 135.74C124.427 136.76 122.757 137.27 120.777 137.27C119.177 137.27 117.737 136.92 116.457 136.22C115.197 135.5 114.207 134.49 113.487 133.19C112.787 131.89 112.437 130.39 112.437 128.69C112.437 126.97 112.787 125.46 113.487 124.16C114.187 122.86 115.167 121.86 116.427 121.16C117.687 120.46 119.137 120.11 120.777 120.11C122.357 120.11 123.767 120.45 125.007 121.13C126.267 121.81 127.237 122.78 127.917 124.04C128.617 125.28 128.967 126.71 128.967 128.33ZM124.617 127.13C124.597 126.05 124.207 125.19 123.447 124.55C122.687 123.89 121.757 123.56 120.657 123.56C119.617 123.56 118.737 123.88 118.017 124.52C117.317 125.14 116.887 126.01 116.727 127.13H124.617ZM145.233 122.96C145.773 122.08 146.473 121.39 147.333 120.89C148.213 120.39 149.213 120.14 150.333 120.14V124.55H149.223C147.903 124.55 146.903 124.86 146.223 125.48C145.563 126.1 145.233 127.18 145.233 128.72V137H141.033V120.38H145.233V122.96ZM177.612 128.33C177.612 128.93 177.572 129.47 177.492 129.95H165.342C165.442 131.15 165.862 132.09 166.602 132.77C167.342 133.45 168.252 133.79 169.332 133.79C170.892 133.79 172.002 133.12 172.662 131.78H177.192C176.712 133.38 175.792 134.7 174.432 135.74C173.072 136.76 171.402 137.27 169.422 137.27C167.822 137.27 166.382 136.92 165.102 136.22C163.842 135.5 162.852 134.49 162.132 133.19C161.432 131.89 161.082 130.39 161.082 128.69C161.082 126.97 161.432 125.46 162.132 124.16C162.832 122.86 163.812 121.86 165.072 121.16C166.332 120.46 167.782 120.11 169.422 120.11C171.002 120.11 172.412 120.45 173.652 121.13C174.912 121.81 175.882 122.78 176.562 124.04C177.262 125.28 177.612 126.71 177.612 128.33ZM173.262 127.13C173.242 126.05 172.852 125.19 172.092 124.55C171.332 123.89 170.402 123.56 169.302 123.56C168.262 123.56 167.382 123.88 166.662 124.52C165.962 125.14 165.532 126.01 165.372 127.13H173.262Z" fill="white"/>
</svg>
